<?xml version="1.0" encoding="UTF-8" standalone="no"?>
<!DOCTYPE svg PUBLIC "-//W3C//DTD SVG 1.0//EN" "http://www.w3.org/TR/2001/PR-SVG-20010719/DTD/svg10.dtd">
<svg width="18cm" height="9cm" viewBox="220 -20 344 176" xmlns="http://www.w3.org/2000/svg" xmlns:xlink="http://www.w3.org/1999/xlink">
  <g>
    <rect style="fill: #ffffff" x="310" y="140" width="54.35" height="15.5222"/>
    <rect style="fill: none; fill-opacity:0; stroke-width: 2.35099e-37; stroke: #ffffff" x="310" y="140" width="54.35" height="15.5222"/>
    <text font-size="12.4178" style="fill: #000000;text-anchor:middle;font-family:sans-serif;font-style:normal;font-weight:normal" x="337.175" y="151.5">
      <tspan x="337.175" y="151.5">hombres</tspan>
    </text>
  </g>
  <g>
    <rect style="fill: #ffffff" x="420" y="20" width="60" height="15.5222"/>
    <rect style="fill: none; fill-opacity:0; stroke-width: 2.35099e-37; stroke: #ffffff" x="420" y="20" width="60" height="15.5222"/>
    <text font-size="12.4178" style="fill: #000000;text-anchor:middle;font-family:sans-serif;font-style:normal;font-weight:normal" x="450" y="31.5">
      <tspan x="450" y="31.5">tiempo</tspan>
    </text>
  </g>
  <g>
    <rect style="fill: #ffffff" x="370" y="-20" width="60" height="15.5222"/>
    <rect style="fill: none; fill-opacity:0; stroke-width: 2.35099e-37; stroke: #ffffff" x="370" y="-20" width="60" height="15.5222"/>
    <text font-size="12.4178" style="fill: #000000;text-anchor:middle;font-family:sans-serif;font-style:normal;font-weight:normal" x="400" y="-8.5">
      <tspan x="400" y="-8.5">es</tspan>
    </text>
  </g>
  <g>
    <rect style="fill: #ffffff" x="320" y="20" width="60" height="15.5222"/>
    <rect style="fill: none; fill-opacity:0; stroke-width: 2.35099e-37; stroke: #ffffff" x="320" y="20" width="60" height="15.5222"/>
    <text font-size="12.4178" style="fill: #000000;text-anchor:middle;font-family:sans-serif;font-style:normal;font-weight:normal" x="350" y="31.5">
      <tspan x="350" y="31.5">de</tspan>
    </text>
  </g>
  <g>
    <rect style="fill: #ffffff" x="462" y="64" width="60" height="15.5222"/>
    <rect style="fill: none; fill-opacity:0; stroke-width: 2.35099e-37; stroke: #ffffff" x="462" y="64" width="60" height="15.5222"/>
    <text font-size="12.4178" style="fill: #000000;text-anchor:middle;font-family:sans-serif;font-style:normal;font-weight:normal" x="492" y="75.5">
      <tspan x="492" y="75.5">todos</tspan>
    </text>
  </g>
  <g>
    <rect style="fill: #ffffff" x="346" y="104" width="60" height="15.5222"/>
    <rect style="fill: none; fill-opacity:0; stroke-width: 2.35099e-37; stroke: #ffffff" x="346" y="104" width="60" height="15.5222"/>
    <text font-size="12.4178" style="fill: #000000;text-anchor:middle;font-family:sans-serif;font-style:normal;font-weight:normal" x="376" y="115.5">
      <tspan x="376" y="115.5">los</tspan>
    </text>
  </g>
  <g>
    <rect style="fill: #ffffff" x="268" y="60" width="60" height="15.5222"/>
    <rect style="fill: none; fill-opacity:0; stroke-width: 2.35099e-37; stroke: #ffffff" x="268" y="60" width="60" height="15.5222"/>
    <text font-size="12.4178" style="fill: #000000;text-anchor:middle;font-family:sans-serif;font-style:normal;font-weight:normal" x="298" y="71.5">
      <tspan x="298" y="71.5">buenos</tspan>
    </text>
  </g>
  <g>
    <rect style="fill: #ffffff" x="504" y="104" width="60" height="15.5222"/>
    <rect style="fill: none; fill-opacity:0; stroke-width: 2.35099e-37; stroke: #ffffff" x="504" y="104" width="60" height="15.5222"/>
    <text font-size="12.4178" style="fill: #000000;text-anchor:middle;font-family:sans-serif;font-style:normal;font-weight:normal" x="534" y="115.5">
      <tspan x="534" y="115.5">vengan</tspan>
    </text>
  </g>
  <g>
    <rect style="fill: #ffffff" x="220" y="100" width="48" height="15.5222"/>
    <rect style="fill: none; fill-opacity:0; stroke-width: 2.35099e-37; stroke: #ffffff" x="220" y="100" width="48" height="15.5222"/>
    <text font-size="12.4178" style="fill: #000000;text-anchor:middle;font-family:sans-serif;font-style:normal;font-weight:normal" x="244" y="111.5">
      <tspan x="244" y="111.5">al</tspan>
    </text>
  </g>
  <g>
    <rect style="fill: #ffffff" x="264" y="140" width="40.75" height="15.5222"/>
    <rect style="fill: none; fill-opacity:0; stroke-width: 2.35099e-37; stroke: #ffffff" x="264" y="140" width="40.75" height="15.5222"/>
    <text font-size="12.4178" style="fill: #000000;text-anchor:middle;font-family:sans-serif;font-style:normal;font-weight:normal" x="284.375" y="151.5">
      <tspan x="284.375" y="151.5">auxilio</tspan>
    </text>
  </g>
  <g>
    <rect style="fill: #ffffff" x="442" y="104" width="26" height="15.5222"/>
    <rect style="fill: none; fill-opacity:0; stroke-width: 2.35099e-37; stroke: #ffffff" x="442" y="104" width="26" height="15.5222"/>
    <text font-size="12.4178" style="fill: #000000;text-anchor:middle;font-family:sans-serif;font-style:normal;font-weight:normal" x="455" y="115.5">
      <tspan x="455" y="115.5">su</tspan>
    </text>
  </g>
  <g>
    <rect style="fill: #ffffff" x="394" y="140" width="48" height="15.5222"/>
    <rect style="fill: none; fill-opacity:0; stroke-width: 2.35099e-37; stroke: #ffffff" x="394" y="140" width="48" height="15.5222"/>
    <text font-size="12.4178" style="fill: #000000;text-anchor:middle;font-family:sans-serif;font-style:normal;font-weight:normal" x="418" y="151.5">
      <tspan x="418" y="151.5">partido</tspan>
    </text>
  </g>
  <g>
    <rect style="fill: #ffffff" x="390" y="64" width="60" height="15.5222"/>
    <rect style="fill: none; fill-opacity:0; stroke-width: 2.35099e-37; stroke: #ffffff" x="390" y="64" width="60" height="15.5222"/>
    <text font-size="12.4178" style="fill: #000000;text-anchor:middle;font-family:sans-serif;font-style:normal;font-weight:normal" x="420" y="75.5">
      <tspan x="420" y="75.5">que</tspan>
    </text>
  </g>
  <line style="fill: none; fill-opacity:0; stroke-width: 2; stroke: #000000" x1="387.964" y1="-4.47826" x2="350" y2="20"/>
  <line style="fill: none; fill-opacity:0; stroke-width: 2; stroke: #000000" x1="412.036" y1="-4.47826" x2="450" y2="20"/>
  <line style="fill: none; fill-opacity:0; stroke-width: 2; stroke: #000000" x1="335" y1="35.5222" x2="298" y2="60"/>
  <line style="fill: none; fill-opacity:0; stroke-width: 2; stroke: #000000" x1="285.001" y1="75.5217" x2="244" y2="100"/>
  <line style="fill: none; fill-opacity:0; stroke-width: 2; stroke: #000000" x1="256" y1="115.522" x2="284.376" y2="140"/>
  <line style="fill: none; fill-opacity:0; stroke-width: 2; stroke: #000000" x1="450" y1="35.5222" x2="420" y2="64"/>
  <line style="fill: none; fill-opacity:0; stroke-width: 2; stroke: #000000" x1="465" y1="35.5222" x2="492" y2="64"/>
  <line style="fill: none; fill-opacity:0; stroke-width: 2; stroke: #000000" x1="361" y1="119.522" x2="337.176" y2="140"/>
  <line style="fill: none; fill-opacity:0; stroke-width: 2; stroke: #000000" x1="391" y1="119.522" x2="418" y2="140"/>
  <line style="fill: none; fill-opacity:0; stroke-width: 2; stroke: #000000" x1="477" y1="79.5222" x2="455" y2="104"/>
  <line style="fill: none; fill-opacity:0; stroke-width: 2; stroke: #000000" x1="507" y1="79.5222" x2="534" y2="104"/>
  <line style="fill: none; fill-opacity:0; stroke-width: 2; stroke: #000000" x1="405" y1="79.5222" x2="376" y2="104"/>
</svg>
