<?xml version="1.0" encoding="UTF-8" standalone="no"?>
<!-- Created with Inkscape (http://www.inkscape.org/) -->

<svg
   xmlns:dc="http://purl.org/dc/elements/1.1/"
   xmlns:cc="http://creativecommons.org/ns#"
   xmlns:rdf="http://www.w3.org/1999/02/22-rdf-syntax-ns#"
   xmlns:svg="http://www.w3.org/2000/svg"
   xmlns="http://www.w3.org/2000/svg"
   xmlns:sodipodi="http://sodipodi.sourceforge.net/DTD/sodipodi-0.dtd"
   xmlns:inkscape="http://www.inkscape.org/namespaces/inkscape"
   id="svg2"
   version="1.1"
   inkscape:version="0.92.2 2405546, 2018-03-11"
   width="765"
   height="990"
   xml:space="preserve"
   sodipodi:docname="Logo_iglesia_pastafari.svg"><metadata
     id="metadata8"><rdf:RDF><cc:Work
         rdf:about=""><dc:format>image/svg+xml</dc:format><dc:type
           rdf:resource="http://purl.org/dc/dcmitype/StillImage" /><dc:title></dc:title></cc:Work></rdf:RDF></metadata><defs
     id="defs6"><clipPath
       clipPathUnits="userSpaceOnUse"
       id="clipPath16"><path
         d="M 0,792 612,792 612,0 0,0 0,792 z"
         id="path18" /></clipPath></defs><sodipodi:namedview
     pagecolor="#000000"
     bordercolor="#666666"
     borderopacity="1"
     objecttolerance="10"
     gridtolerance="10"
     guidetolerance="10"
     inkscape:pageopacity="1"
     inkscape:pageshadow="2"
     inkscape:window-width="1366"
     inkscape:window-height="731"
     id="namedview4"
     showgrid="false"
     inkscape:zoom="0.67425131"
     inkscape:cx="227.07656"
     inkscape:cy="615.75356"
     inkscape:window-x="0"
     inkscape:window-y="0"
     inkscape:window-maximized="1"
     inkscape:current-layer="g10" /><g
     id="g10"
     inkscape:groupmode="layer"
     inkscape:label="Monesvol FINAL"
     transform="matrix(1.25,0,0,-1.25,0,990)"><g
       id="g12"
       style="fill:#ffffff"><g
         id="g14"
         clip-path="url(#clipPath16)"
         style="fill:#ffffff"><g
           id="g20"
           transform="translate(395,551.125)"
           style="fill:#ffffff"><path
             d="m 0,0 c -6.375,-17.5 -30.533,-26.433 -50.334,-27.958 -8.766,-0.676 -15.432,0.546 -23.916,1.833 -23.545,3.571 -47.811,15.46 -69.083,15.167 -16.943,-0.234 -29.792,-6.917 -41.542,-16.042 7.375,20.25 26.312,25.165 45.542,27.042 9.414,0.918 18.02,0.081 28.083,-1.917 22.667,-4.5 47.156,-15.237 67.916,-15.083 C -25.895,-16.829 -11,-8.75 0,0"
             style="fill:#ffffff;fill-opacity:1;fill-rule:evenodd;stroke:none"
             id="path22" /></g><g
           id="g24"
           transform="translate(326,450.125)"
           style="fill:#ffffff"><path
             d="m 0,0 c 2.985,-5.254 2.051,-14.389 0,-20 -3.75,-0.25 -3.938,5.937 -7.167,7.042 -6.5,1 -16,1 -23.416,-0.584 0.074,-3.592 -0.667,-8.958 3.333,-10.458 4,-1.625 13.375,-1.375 19.917,-0.625 1.038,-2.818 1.333,-9 -0.167,-13 -7.75,0.875 -13.5,0.5 -19.125,-0.75 -2.875,-1 -2.875,-6.083 -2.708,-11.083 6.666,-1.542 14.666,-1.334 21.166,0.166 4.49,0.215 4.292,7.167 9.167,7.292 1.75,-5.75 1.625,-13.875 0,-18 -14.228,-6.225 -37.812,-2.358 -44.75,-0.834 -4.125,5.125 -4,7.459 -4.25,13.709 4.5,6.708 5.167,9.333 5.167,17 0,7.875 -1.167,10.292 -5.167,15.292 0,5.303 1.476,10.754 5,15 11.5,2.5 26.75,3.458 43,-0.167"
             style="fill:#ffffff;fill-opacity:1;fill-rule:evenodd;stroke:none"
             id="path26" /></g><g
           id="g28"
           transform="translate(279.3335,470.1665)"
           style="fill:#ffffff"><path
             d="m 0,0 c 13.333,0.667 29.833,1.667 44.333,-0.167 1.709,6.375 2.209,9.125 2.209,9.125 C 25.041,17.125 34.833,54.833 62.333,47.5 88.157,40.614 79.667,4.708 58.5,6.333 c 0,0 -1.292,-4.833 -1.958,-9 5.125,-1.375 8.419,-2.694 12.125,-3.875 8.692,-2.77 18.905,-6.393 28.75,-10.625 1.635,2.892 14.041,29.667 26.875,33.5 11.166,2.5 17.375,-3.875 22.5,-5.375 5.5,3 11.125,12.875 20,13 7.25,0.25 13,-1.875 12.75,-6.875 -0.375,-4.125 -5.375,-4.75 -12,-4.625 -5.5,-0.125 -10.875,-10 -18.375,-13 -8,-1.75 -12.875,4.5 -20.375,4.875 -4.875,-0.5 -18.245,-23.545 -18.75,-26.75 11.254,-5.662 22.49,-13.208 31.291,-20.75 14.151,8.483 47.334,28.334 59,8 2.334,-5.333 -2.5,-15 -1,-18 5.167,-3.333 19.574,9.428 31,11 9.078,1.25 25.5,0.834 23,-10 -2.666,-5.333 -9.059,-0.51 -16,-1 -17.033,-1.201 -35.618,-21.402 -47,-8 -4.91,5.783 0.5,18.5 -2,22 -6.833,4.667 -22.374,-2.489 -30,-7 -8.153,-4.822 -15.01,-8.751 -21.333,-14.166 8.673,-1.696 12.718,-2.691 17.333,-5.834 13.104,-8.922 6.669,-33.624 21,-39 9.315,-3.494 17.323,5.335 30,4 7.641,-0.804 23.667,-10 21,-18 -6,-8 -15.333,8.167 -23,7 -12.166,-4.333 -34.401,-8.674 -44,5 -5.914,8.426 -3.333,26.334 -13.166,32.334 -5.257,3.208 -9.5,5.333 -20.667,5.666 -1.269,0.039 -16.5,-8.5 -24.167,-12 7.334,-5.333 12.381,-6.536 15,-15 2.417,-7.807 -3.126,-15.275 -1,-25 1.646,-7.526 8.767,-10.899 15,-12 6.3,-1.112 17.917,2.946 19,-5 1.258,-9.218 -16.418,-7.163 -22,-6 -12.014,2.504 -22.592,9.658 -23.333,24.167 -0.278,5.42 2.171,13.389 1.333,17.833 -1.161,6.155 -16.666,15.167 -18.166,14.834 -5.765,-1.284 -17.5,-6.5 -24.834,-7.834 1.193,-2.957 4.667,-8.166 3.834,-13 -0.167,-4.333 -3.334,-15.666 -3.167,-21.5 0.958,-3.416 6.833,-14.833 7.833,-20.333 1.167,-5.833 0.167,-12 -5,-11.667 -5.5,1 -5.333,6.334 -6,11.5 -1.333,5 -6.333,11.501 -8,17.667 -1.333,6.167 2.834,19.167 2.834,23.167 0.333,3.333 -2.917,8.719 -4.044,11.663 -16.165,-2.663 -34.195,-2.65 -50.999,-0.579 -1.009,-2.527 -4.249,-7.293 -4.291,-10.751 -0.041,-5.958 3,-17.084 2,-21.5 -2.167,-6.542 -6.583,-12.084 -8.166,-17.5 -1.417,-4.417 1.333,-11.667 -5,-12.5 -5.667,-0.333 -6.834,7.5 -6,14.333 0.5,6.167 6.999,14 7.666,17.667 0.538,4 -2.125,14.917 -2.166,19.667 0.333,5.5 2.774,9.026 4.484,12.353 -11.171,2.081 -21.401,5.088 -29.651,8.813 -6.833,-3 -17.089,-4.761 -19.167,-13.5 -1.324,-5.571 2.441,-11.015 1.334,-20.833 -1.515,-13.423 -12.474,-21.997 -29.334,-23.167 -7.668,-0.532 -16.876,0.398 -16,7 1.07,8.05 18.982,3.279 27,8 10.629,6.259 4.167,19.834 6,34 3.5,10.167 9.828,11.673 15.834,15.667 -6.704,3.61 -22.667,11.167 -22.667,11.167 -11.333,0.666 -16.785,-3.025 -22.167,-5.834 -10.999,-5.74 -7.294,-22.288 -14,-32 -5.618,-8.138 -17.528,-11.275 -28,-10 -4.884,0.595 -9.809,5.229 -15,5 -9.215,-0.405 -15.5,-13.166 -22,-9 -7.166,6.5 11.563,19.139 18,20 14.038,1.878 25.542,-10.939 36,-1 3.934,3.739 4.145,11.877 6,18 4.366,14.401 8.924,20.514 28,23 -5.833,5.5 -14.188,9.314 -22,14 -7.835,4.702 -20.833,13.167 -27,9 -3.666,-3.5 1.874,-24.868 -10,-27 -11.906,-2.137 -23.498,10.803 -39,12 -7.761,0.6 -14,-4.666 -17,2 -2.833,11 14.233,10.158 23,9 11.339,-1.497 23,-13 30,-11 3,2.5 -1.748,10.305 0,17 6.235,23.875 46.771,2.034 56,-7 12.74,8.525 20.584,14 35.084,21.625 -1.584,3.214 -12,24.875 -19.75,28.25 -3.062,-0.709 -14,-6.5 -19.375,-5.5 -5.5,1.875 -13.875,11.875 -17.75,13.125 -2.48,0.768 -13.375,-2 -13.542,6.667 0.375,6.75 12.299,6.16 15.333,5.5 6.375,-1.125 16.867,-12.942 17.834,-13.542 5.5,2.75 12,6.75 21.5,5.375 9.25,-1.875 27.118,-32.773 27.778,-34.268 12.465,5.405 25.653,9.814 39.888,13.768 -1,6.834 -2,9.5 -2,9.5 -26,-2.333 -29.667,39.417 -2.166,42 C 13.296,51.976 16,17 -2.5,9.167 c 0,0 0.333,-2.5 2.5,-9.167 m 15.333,-11.167 c -41.479,-2.586 -75.265,-19.458 -101,-39 30.975,-20.026 74.823,-45.199 126,-38 35.58,5.005 67.054,21.278 90,39 -29.079,19.606 -68.815,40.881 -115,38 m 39.084,25.75 c 15.75,-3.5 21.125,19.75 8,25.125 2.25,-2.75 1.958,-5.625 1.5,-7.625 -4.25,-8.5 -17.875,-0.875 -11.25,8.25 -13.5,-5 -11.686,-22.764 1.75,-25.75 M -10.5,15.667 c 14.683,1.878 13.667,22.416 1.167,24.666 6.25,-6 0.25,-12 -2.886,-12.281 -3.614,-0.469 -10.406,3.156 -6.448,11.781 -13.5,-7.666 -6.166,-26 8.167,-24.166"
             style="fill:#ffffff;fill-opacity:1;fill-rule:evenodd;stroke:none"
             id="path30" /></g><g
           id="g32"
           transform="translate(279.3335,470.1665)"
           style="fill:#ffffff"><path
             d="m 0,0 c 13.333,0.667 29.833,1.667 44.333,-0.167 1.709,6.375 2.209,9.125 2.209,9.125 C 25.041,17.125 34.833,54.833 62.333,47.5 88.157,40.614 79.667,4.708 58.5,6.333 c 0,0 -1.292,-4.833 -1.958,-9 5.125,-1.375 8.419,-2.694 12.125,-3.875 8.692,-2.77 18.905,-6.393 28.75,-10.625 1.635,2.892 14.041,29.667 26.875,33.5 11.166,2.5 17.375,-3.875 22.5,-5.375 5.5,3 11.125,12.875 20,13 7.25,0.25 13,-1.875 12.75,-6.875 -0.375,-4.125 -5.375,-4.75 -12,-4.625 -5.5,-0.125 -10.875,-10 -18.375,-13 -8,-1.75 -12.875,4.5 -20.375,4.875 -4.875,-0.5 -18.245,-23.545 -18.75,-26.75 11.254,-5.662 22.49,-13.208 31.291,-20.75 14.151,8.483 47.334,28.334 59,8 2.334,-5.333 -2.5,-15 -1,-18 5.167,-3.333 19.574,9.428 31,11 9.078,1.25 25.5,0.834 23,-10 -2.666,-5.333 -9.059,-0.51 -16,-1 -17.033,-1.201 -35.618,-21.402 -47,-8 -4.91,5.783 0.5,18.5 -2,22 -6.833,4.667 -22.374,-2.489 -30,-7 -8.153,-4.822 -15.01,-8.751 -21.333,-14.166 8.673,-1.696 12.718,-2.691 17.333,-5.834 13.104,-8.922 6.669,-33.624 21,-39 9.315,-3.494 17.323,5.335 30,4 7.641,-0.804 23.667,-10 21,-18 -6,-8 -15.333,8.167 -23,7 -12.166,-4.333 -34.401,-8.674 -44,5 -5.914,8.426 -3.333,26.334 -13.166,32.334 -5.257,3.208 -9.5,5.333 -20.667,5.666 -1.269,0.039 -16.5,-8.5 -24.167,-12 7.334,-5.333 12.381,-6.536 15,-15 2.417,-7.807 -3.126,-15.275 -1,-25 1.646,-7.526 8.767,-10.899 15,-12 6.3,-1.112 17.917,2.946 19,-5 1.258,-9.218 -16.418,-7.163 -22,-6 -12.014,2.504 -22.592,9.658 -23.333,24.167 -0.278,5.42 2.171,13.389 1.333,17.833 -1.161,6.155 -16.666,15.167 -18.166,14.834 -5.765,-1.284 -17.5,-6.5 -24.834,-7.834 1.193,-2.957 4.667,-8.166 3.834,-13 -0.167,-4.333 -3.334,-15.666 -3.167,-21.5 0.958,-3.416 6.833,-14.833 7.833,-20.333 1.167,-5.833 0.167,-12 -5,-11.667 -5.5,1 -5.333,6.334 -6,11.5 -1.333,5 -6.333,11.501 -8,17.667 -1.333,6.167 2.834,19.167 2.834,23.167 0.333,3.333 -2.917,8.719 -4.044,11.663 -16.165,-2.663 -34.195,-2.65 -50.999,-0.579 -1.009,-2.527 -4.249,-7.293 -4.291,-10.751 -0.041,-5.958 3,-17.084 2,-21.5 -2.167,-6.542 -6.583,-12.084 -8.166,-17.5 -1.417,-4.417 1.333,-11.667 -5,-12.5 -5.667,-0.333 -6.834,7.5 -6,14.333 0.5,6.167 6.999,14 7.666,17.667 0.538,4 -2.125,14.917 -2.166,19.667 0.333,5.5 2.774,9.026 4.484,12.353 -11.171,2.081 -21.401,5.088 -29.651,8.813 -6.833,-3 -17.089,-4.761 -19.167,-13.5 -1.324,-5.571 2.441,-11.015 1.334,-20.833 -1.515,-13.423 -12.474,-21.997 -29.334,-23.167 -7.668,-0.532 -16.876,0.398 -16,7 1.07,8.05 18.982,3.279 27,8 10.629,6.259 4.167,19.834 6,34 3.5,10.167 9.828,11.673 15.834,15.667 -6.704,3.61 -22.667,11.167 -22.667,11.167 -11.333,0.666 -16.785,-3.025 -22.167,-5.834 -10.999,-5.74 -7.294,-22.288 -14,-32 -5.618,-8.138 -17.528,-11.275 -28,-10 -4.884,0.595 -9.809,5.229 -15,5 -9.215,-0.405 -15.5,-13.166 -22,-9 -7.166,6.5 11.563,19.139 18,20 14.038,1.878 25.542,-10.939 36,-1 3.934,3.739 4.145,11.877 6,18 4.366,14.401 8.924,20.514 28,23 -5.833,5.5 -14.188,9.314 -22,14 -7.835,4.702 -20.833,13.167 -27,9 -3.666,-3.5 1.874,-24.868 -10,-27 -11.906,-2.137 -23.498,10.803 -39,12 -7.761,0.6 -14,-4.666 -17,2 -2.833,11 14.233,10.158 23,9 11.339,-1.497 23,-13 30,-11 3,2.5 -1.748,10.305 0,17 6.235,23.875 46.771,2.034 56,-7 12.74,8.525 20.584,14 35.084,21.625 -1.584,3.214 -12,24.875 -19.75,28.25 -3.062,-0.709 -14,-6.5 -19.375,-5.5 -5.5,1.875 -13.875,11.875 -17.75,13.125 -2.48,0.768 -13.375,-2 -13.542,6.667 0.375,6.75 12.299,6.16 15.333,5.5 6.375,-1.125 16.867,-12.942 17.834,-13.542 5.5,2.75 12,6.75 21.5,5.375 9.25,-1.875 27.118,-32.773 27.778,-34.268 12.465,5.405 25.653,9.814 39.888,13.768 -1,6.834 -2,9.5 -2,9.5 -26,-2.333 -29.667,39.417 -2.166,42 C 13.296,51.976 16,17 -2.5,9.167 c 0,0 0.333,-2.5 2.5,-9.167 m 15.333,-11.167 c -41.479,-2.586 -75.265,-19.458 -101,-39 30.975,-20.026 74.823,-45.199 126,-38 35.58,5.005 67.054,21.278 90,39 -29.079,19.606 -68.815,40.881 -115,38 m 39.084,25.75 c 15.75,-3.5 21.125,19.75 8,25.125 2.25,-2.75 1.958,-5.625 1.5,-7.625 -4.25,-8.5 -17.875,-0.875 -11.25,8.25 -13.5,-5 -11.686,-22.764 1.75,-25.75 M -10.5,15.667 c 14.683,1.878 13.667,22.416 1.167,24.666 6.25,-6 0.25,-12 -2.886,-12.281 -3.614,-0.469 -10.406,3.156 -6.448,11.781 -13.5,-7.666 -6.166,-26 8.167,-24.166"
             style="fill:#ffffff;fill-opacity:1;fill-rule:evenodd;stroke:none"
             id="path34" /></g><g
           id="g36"
           transform="translate(271.875,449.125)"
           style="fill:#ffffff"><path
             d="m 0,0 c -1.323,-16.574 -3.75,-45.875 0.875,-58 -7.5,-0.125 -12.871,2.772 -16.875,5 2.57,8.43 2.079,19.921 2,31 -4.625,-2 -8.593,-7.392 -12,-11 -4.5,3.375 -5.266,5.401 -9,7 -0.594,-7.141 -0.375,-17.625 -0.125,-22.125 -5.75,1.125 -10.083,2.667 -14.75,5.833 3.339,6.548 2.009,19.226 0.875,27.292 3.126,2.541 8.75,5.917 11.458,5.542 3.5,-1 3.667,-3.5 10,-8.334 C -17.542,-9.125 -18.375,0 0,0"
             style="fill:#ffffff;fill-opacity:1;fill-rule:evenodd;stroke:none"
             id="path38" /></g><g
           id="g40"
           transform="translate(331.833,449.3335)"
           style="fill:#ffffff"><path
             d="m 0,0 c 5.156,-0.031 12.667,-2.667 15,-3.833 2.021,-3.595 1,-19.25 2.667,-23.5 1.667,-3.334 8,-8.667 10.25,-11.75 2.083,3.583 6.375,7.625 8.375,10.75 1.625,3 1.614,14.112 3.542,17.5 4.583,-1.5 8.708,-4.125 13.333,-7.5 -2.167,-1.417 -3.125,-2.125 -4.5,-5.125 -1.664,-3.631 -1.167,-6.417 -2.5,-9.5 -1.875,-3.75 -10.625,-11.375 -12.167,-16.625 -2.166,-2 -8.499,-3.917 -10.833,-4.25 -4.25,10.125 -15.961,18.291 -17.75,22.125 C 3.667,-27.958 5.5,-14.208 3,-7.333 1.472,-3.13 2.083,-4.25 0,0"
             style="fill:#ffffff;fill-opacity:1;fill-rule:evenodd;stroke:none"
             id="path42" /></g></g></g></g></svg>